<?xml version="1.0" encoding="utf-8"?>
<svg width="119" height="28" fill="currentColor" viewBox="0 0 119 28" xmlns="http://www.w3.org/2000/svg">
  <g transform="matrix(0.006079, 0, 0, -0.006037, -0.651545, 32.327785)" fill="#000000" stroke="none" style="">
    <path d="M3124 5192 c-6 -4 -28 -59 -49 -123 l-39 -117 -85 -17 c-47 -9 -120 -28 -161 -41 -41 -13 -86 -24 -100 -24 -17 0 -50 22 -100 66 -126 111 -94 112 -298 -5 -97 -56 -186 -109 -197 -117 -19 -14 -19 -15 6 -139 l25 -125 -132 -131 -131 -131 -129 25 c-71 14 -132 22 -136 19 -17 -17 -218 -377 -218 -392 0 -14 37 -61 137 -171 l24 -26 -35 -119 c-19 -65 -42 -145 -51 -176 -18 -67 -21 -69 -167 -117 l-98 -33 0 -233 0 -233 124 -42 124 -41 7 -42 c4 -23 23 -96 41 -162 19 -66 34 -129 34 -141 0 -11 -36 -64 -80 -117 l-81 -96 22 -43 c43 -85 178 -313 198 -335 23 -25 20 -25 171 7 l85 19 134 -133 133 -133 -27 -128 c-15 -69 -25 -128 -23 -129 25 -22 359 -212 386 -221 19 -5 35 4 89 52 36 32 78 68 94 81 l28 23 114 -35 c63 -19 143 -40 177 -47 47 -9 63 -17 69 -33 4 -12 25 -69 45 -128 l38 -108 232 0 232 0 40 122 40 123 145 38 c234 61 211 63 319 -31 l93 -81 51 26 c28 14 117 64 199 111 169 99 159 79 126 242 l-21 103 69 69 c37 38 98 97 136 130 l67 60 113 -21 c61 -12 119 -21 128 -21 13 0 94 132 217 351 22 39 10 65 -72 157 l-74 83 22 67 c13 37 33 112 46 167 14 61 31 107 42 117 10 9 67 34 128 55 l110 38 0 232 0 232 -52 19 c-29 11 -83 29 -120 41 -36 12 -69 29 -73 38 -3 9 -14 56 -25 104 -11 48 -31 122 -44 164 l-25 78 90 99 89 100 -18 32 c-11 17 -58 99 -106 181 -124 214 -94 193 -235 164 l-120 -25 -135 136 -135 135 24 115 c13 63 24 120 24 125 1 6 -16 21 -37 34 -62 41 -354 211 -361 211 -3 0 -46 -36 -96 -80 -49 -44 -97 -80 -106 -80 -10 0 -71 15 -136 34 -65 19 -139 37 -165 41 l-46 7 -42 121 c-23 67 -47 125 -53 129 -15 10 -439 10 -453 0z m526 -617 c549 -119 981 -508 1160 -1043 56 -168 70 -262 70 -476 0 -204 -15 -324 -58 -450 -26 -78 -28 -81 -59 -84 l-33 -3 0 511 0 512 -27 -7 c-16 -3 -127 -54 -248 -112 -121 -58 -246 -117 -277 -131 l-57 -27 -1 -353 c0 -224 -4 -360 -10 -373 -8 -14 -21 -19 -55 -19 l-44 0 -3 294 c-2 162 -6 297 -9 301 -4 3 -45 -7 -90 -23 -72 -26 -368 -136 -421 -157 -16 -6 -18 -24 -18 -159 0 -180 -8 -253 -26 -260 -22 -8 -44 4 -49 28 -7 29 -95 1546 -95 1630 l0 26 -94 0 c-52 0 -97 -4 -100 -9 -6 -9 -46 -554 -62 -826 -3 -66 -10 -127 -15 -136 -5 -9 -26 -19 -49 -22 -48 -6 -103 -45 -127 -90 -15 -27 -18 -72 -23 -309 -3 -152 -8 -280 -12 -284 -5 -4 -8 -2 -8 4 0 7 -11 204 -25 440 -14 235 -32 551 -40 702 -9 151 -18 281 -20 288 -3 8 -30 12 -88 12 l-84 0 -7 -67 c-3 -38 -15 -205 -26 -373 -12 -167 -23 -306 -25 -308 -2 -3 -26 -8 -52 -13 -88 -17 -128 -62 -143 -164 -5 -38 -10 -164 -10 -278 0 -124 -4 -216 -10 -228 -14 -25 -95 -28 -104 -3 -3 9 -6 91 -6 184 l0 168 -32 24 c-18 14 -104 69 -190 123 l-158 99 0 44 c0 59 45 277 76 372 35 105 112 259 179 360 238 354 569 575 1007 670 82 18 119 19 308 16 146 -3 239 -10 290 -21z m860 -1495 l0 -70 -85 0 -85 0 0 70 0 70 85 0 85 0 0 -70z m-2024 -47 c-3 -49 -11 -162 -16 -253 -15 -250 -22 -280 -64 -264 -14 5 -16 37 -16 284 l0 279 26 20 c15 12 38 21 52 21 l25 0 -7 -87z m534 35 c0 -67 -28 -472 -35 -514 -7 -42 -42 -53 -56 -18 -5 14 -9 139 -9 279 l0 253 31 26 c17 14 39 26 50 26 16 0 19 -7 19 -52z m800 -333 l0 -105 -85 0 -85 0 0 105 0 105 85 0 85 0 0 -105z m690 0 l0 -105 -85 0 -85 0 0 105 0 105 85 0 85 0 0 -105z m-1833 -492 c115 -114 215 -178 348 -222 248 -82 518 -57 741 70 50 28 116 81 185 147 l107 102 191 0 c142 0 191 -3 191 -12 0 -7 -25 -54 -56 -106 l-56 -94 -42 6 c-22 3 -57 8 -76 12 -33 5 -39 1 -112 -73 l-77 -78 9 -40 c5 -22 10 -55 10 -72 0 -36 -16 -49 -154 -124 l-69 -37 -59 48 -60 48 -101 -27 -102 -26 -25 -70 -25 -70 -136 -3 -135 -3 -22 69 c-20 62 -26 71 -60 85 -44 19 -144 47 -166 47 -8 0 -38 -20 -67 -45 l-51 -46 -86 47 c-154 83 -157 87 -131 191 l12 45 -76 76 -75 75 -74 -10 c-40 -6 -78 -7 -83 -2 -6 4 -32 49 -59 99 l-47 90 195 0 195 0 98 -97z"/>
    <path d="M7077 4130 c-277 -50 -507 -214 -643 -457 -47 -84 -99 -229 -120 -339 -22 -112 -25 -376 -5 -484 67 -372 281 -637 609 -754 86 -30 90 -31 277 -31 168 0 199 3 268 23 190 55 364 175 473 328 243 340 271 916 63 1279 -120 211 -310 359 -531 415 -88 22 -317 34 -391 20z m248 -215 c186 -33 332 -149 424 -336 94 -191 125 -377 102 -603 -15 -152 -35 -225 -91 -341 -72 -147 -163 -245 -285 -308 -108 -54 -259 -73 -387 -46 -319 66 -539 439 -515 874 22 381 208 673 477 749 102 28 164 31 275 11z"/>
    <path d="M10363 3560 c-158 -29 -324 -127 -418 -249 -147 -192 -197 -470 -133 -741 5 -25 31 -88 55 -140 38 -80 59 -108 127 -175 138 -138 285 -197 491 -197 135 0 220 18 335 74 69 33 101 57 171 127 72 72 94 102 132 181 67 136 77 185 77 376 0 180 -16 265 -69 377 -78 164 -261 314 -431 355 -64 16 -275 23 -337 12z m300 -223 c113 -52 213 -184 252 -332 21 -82 21 -312 -1 -386 -43 -146 -145 -277 -258 -330 -55 -26 -71 -29 -162 -29 -96 0 -105 2 -172 36 -118 59 -206 177 -249 335 -23 85 -22 268 1 363 45 188 167 328 320 367 17 4 72 7 121 6 73 -2 101 -8 148 -30z"/>
    <path d="M13785 3554 c-117 -26 -189 -68 -286 -165 l-87 -86 -6 45 c-3 24 -6 78 -6 118 l0 74 -122 0 -121 0 6 -167 c4 -91 7 -555 7 -1030 l0 -863 130 0 130 0 0 401 0 401 51 -56 c207 -227 594 -229 834 -5 100 94 181 239 210 376 21 97 20 376 -1 462 -47 192 -178 373 -323 446 -118 59 -282 79 -416 49z m220 -225 c79 -29 175 -124 215 -211 88 -196 77 -497 -26 -659 -38 -61 -111 -126 -178 -159 -55 -28 -67 -30 -170 -30 -102 0 -116 2 -174 30 -122 57 -209 175 -231 311 -14 81 -14 272 -1 364 25 178 159 334 323 376 51 13 178 2 242 -22z"/>
    <path d="M15358 3560 c-214 -36 -399 -174 -498 -370 -69 -137 -99 -319 -80 -484 14 -123 62 -270 113 -348 60 -89 163 -180 259 -227 114 -56 190 -73 323 -73 206 -1 356 58 500 193 75 72 92 94 135 183 74 150 83 195 78 410 -4 166 -6 187 -32 261 -38 110 -87 186 -176 275 -115 113 -217 161 -385 180 -102 11 -169 11 -237 0z m295 -223 c113 -52 213 -184 252 -332 21 -82 21 -312 -1 -386 -43 -146 -145 -277 -258 -330 -55 -26 -71 -29 -161 -29 -90 0 -106 3 -164 30 -120 57 -215 183 -258 341 -23 85 -22 268 1 363 45 188 167 328 320 367 17 4 72 7 121 6 73 -2 101 -8 148 -30z"/>
    <path d="M8470 2810 l0 -730 130 0 130 0 0 320 0 320 65 0 c223 0 380 -121 481 -370 14 -36 46 -108 71 -161 l45 -96 81 -7 c134 -10 200 -8 194 7 -3 6 -46 106 -96 220 -101 233 -123 275 -193 364 -69 87 -154 148 -242 174 -39 11 -77 23 -85 25 -10 3 -1 19 30 52 25 26 132 139 239 252 106 113 228 240 269 283 l76 77 -162 0 -162 0 -239 -277 c-255 -296 -320 -363 -352 -363 -20 0 -20 5 -20 320 l0 320 -130 0 -130 0 0 -730z"/>
    <path d="M11530 2810 l0 -730 130 0 130 0 0 625 0 625 340 0 340 0 0 -625 0 -625 135 0 135 0 -2 728 -3 727 -602 3 -603 2 0 -730z"/>
    <path d="M16546 3518 c-5 -20 -27 -310 -92 -1201 -8 -121 -13 -222 -9 -225 4 -4 57 -8 120 -10 l112 -4 7 74 c5 62 17 277 52 996 3 72 9 132 13 132 4 0 29 -73 56 -162 48 -162 211 -643 303 -893 l47 -130 94 2 c52 1 98 6 102 10 13 13 281 730 361 965 49 145 74 205 78 192 9 -23 15 -123 40 -652 11 -224 22 -435 25 -469 l7 -63 124 0 c93 0 124 3 124 13 0 6 -7 100 -15 207 -8 107 -30 427 -50 710 -20 283 -39 518 -44 523 -4 4 -79 6 -166 5 l-157 -3 -95 -255 c-79 -214 -174 -480 -286 -797 -12 -35 -24 -63 -27 -63 -3 0 -34 84 -68 188 -34 103 -122 354 -195 557 l-133 370 -162 3 c-161 2 -162 2 -166 -20z"/>
  </g>
</svg>